# xmcd CD database file
#
# Track frame offsets:
#	183
#	18868
#	38865
#	58945
#	82038
#	102895
#	125820
#	144800
#	165620
#	190750
#
# Disc length: 2825 seconds
#
# Revision: 3
# Processed by: cddbd v1.5.2PL0 Copyright (c) Steve Scherf et al.
# Submitted via: CDex 1.51
#
DISCID=810b070a
DTITLE=Mariah Carey - Emotions
DYEAR=1992
DGENRE=Pop
TTITLE0=Emotions
TTITLE1=And You Don't Remember
TTITLE2=Can't Let Go
TTITLE3=Make It Happen
TTITLE4=If It's Over
TTITLE5=You're So Cold
TTITLE6=So Blessed
TTITLE7=To Be Around You
TTITLE8=Till The End Of Time
TTITLE9=The Wind
EXTD=YEAR: 1992
EXTT0=
EXTT1=
EXTT2=
EXTT3=
EXTT4=
EXTT5=
EXTT6=
EXTT7=
EXTT8=
EXTT9=
PLAYORDER=
